<svg width="21" height="15" viewBox="0 0 19 19" fill="none" xmlns="http://www.w3.org/2000/svg">
<g clip-path="url(#clip0)">
<path d="M16 7.61911C16 12.9524 9.14286 17.5239 9.14286 17.5239C9.14286 17.5239 2.28572 12.9524 2.28572 7.61911C2.28572 5.80048 3.00817 4.05634 4.29413 2.77037C5.58009 1.48441 7.32424 0.761963 9.14286 0.761963C10.9615 0.761963 12.7056 1.48441 13.9916 2.77037C15.2776 4.05634 16 5.80048 16 7.61911Z" stroke="#111111" stroke-width="2.28571" stroke-linecap="round" stroke-linejoin="round"/>
<path d="M9.14286 9.90492C10.4052 9.90492 11.4286 8.88158 11.4286 7.61921C11.4286 6.35685 10.4052 5.3335 9.14286 5.3335C7.8805 5.3335 6.85715 6.35685 6.85715 7.61921C6.85715 8.88158 7.8805 9.90492 9.14286 9.90492Z" stroke="#111111" stroke-width="2.28571" stroke-linecap="round" stroke-linejoin="round"/>
</g>
<defs>
<clipPath id="clip0">
<rect width="18.2857" height="18.2857" fill="white"/>
</clipPath>
</defs>
</svg>
