<svg width="21" height="15" viewBox="0 0 19 19" fill="none" xmlns="http://www.w3.org/2000/svg">
<g clip-path="url(#clip0)">
<path d="M12.1905 16.1427V14.6189C12.1905 13.8106 11.8694 13.0355 11.2978 12.4639C10.7263 11.8924 9.95113 11.5713 9.14285 11.5713H3.80952C3.00124 11.5713 2.22607 11.8924 1.65453 12.4639C1.08299 13.0355 0.761902 13.8106 0.761902 14.6189V16.1427" stroke="#111111" stroke-width="2.28571" stroke-linecap="round" stroke-linejoin="round"/>
<path d="M6.47621 8.5237C8.15936 8.5237 9.52383 7.15924 9.52383 5.47609C9.52383 3.79293 8.15936 2.42847 6.47621 2.42847C4.79305 2.42847 3.42859 3.79293 3.42859 5.47609C3.42859 7.15924 4.79305 8.5237 6.47621 8.5237Z" stroke="#111111" stroke-width="2.28571" stroke-linecap="round" stroke-linejoin="round"/>
<path d="M12.9523 8.52381L14.4761 10.0476L17.5238 7" stroke="#111111" stroke-width="2.28571" stroke-linecap="round" stroke-linejoin="round"/>
</g>
<defs>
<clipPath id="clip0">
<rect width="18.2857" height="18.2857" fill="white" transform="translate(0 0.142822)"/>
</clipPath>
</defs>
</svg>
